PathFileType	4	(X/Y/Z)	C:/Users/beibeiliu/ov580/test_trc/User2\sequence.5_training_dense_right.trc
DataRate	CameraRate	NumFrames	NumMarkers	Units	OrigDataRate	OrigDataStartFrame	OrigNumFrames
120	120	14	19	mm	120	209	417
Frame#	Time	ThumbCMC			ThumbMCP			ThumbIP			ThumbTip			IndexMCP			IndexPIP			IndexTip			MiddleMCP			MiddlePIP			MiddleTip			RingMCP			RingPIP			RingTip			PinkyMCP			PinkyPIP			PinkyTip			BackHand1			BackHand2			BackHand3	
		X0	Y0	Z0	X1	Y1	Z1	X2	Y2	Z2	X3	Y3	Z3	X4	Y4	Z4	X5	Y5	Z5	X6	Y6	Z6	X7	Y7	Z7	X8	Y8	Z8	X9	Y9	Z9	X10	Y10	Z10	X11	Y11	Z11	X12	Y12	Z12	X13	Y13	Z13	X14	Y14	Z14	X15	Y15	Z15	X16	Y16	Z16	X17	Y17	Z17	X18	Y18	Z18	
208	1.73333	-31.2291	2.49938	112.479	-49.4323	-24.4602	96.151	-56.9451	-46.2652	66.3626	-51.2513	-60.4635	41.9566	-45.5138	0.553475	30.2334	-53.0382	-19.4679	12.2025	-57.1602	-51.1343	-3.62079	-24.0302	-8.34776	15.9861	-26.7769	-42.675	7.15229	-28.9498	-70.0482	36.4079	-3.76759	-25.101	24.0025	-10.1896	-54.4056	32.292	-10.348	-56.1577	69.873	15.5056	-34.0726	33.1879	7.93852	-58.5954	50.7138	0.777058	-45.4378	80.0058	17.4612	20.5082	64.0244	30.8897	31.6813	92.5907	-7.65202	31.786	86.5713	
209	1.74167	-33.4681	1.10622	114.477	-49.6166	-25.7897	94.0519	-56.9832	-46.8235	68.68	-50.8049	-61.4743	42.7558	-45.7952	3.37649	32.2524	-53.2276	-16.3643	8.44118	-57.6539	-38.6199	-7.78203	-21.8508	-8.20419	18.5623	-27.7751	-44.5513	8.23095	-32.7987	-70.11	37.9652	-4.60402	-26.7892	23.6171	-9.43	-59.9477	37.1068	-10.1196	-57.0635	73.5968	14.7205	-33.8806	33.335	2.31643	-58.4891	53.7614	-0.279816	-45.6897	81.3642	19.8467	18.2456	61.2674	32.4519	27.797	93.4949	-6.39205	29.4309	87.719	
210	1.75	-28.8688	1.56904	113.211	-48.0909	-24.7428	92.2751	-55.9808	-47.0938	66.2211	-52.4258	-61.766	48.0199	-48.3926	5.91133	29.7067	-55.149	-6.78097	7.80963	-66.5055	-27.1435	-16.0875	-24.5655	-11.9128	15.4099	-34.9655	-45.5329	11.0058	-32.2415	-69.2904	40.2344	-4.06005	-25.9235	24.0601	-13.4321	-57.9196	35.1933	-15.2947	-58.9352	70.1841	17.1366	-31.7093	34.0284	2.1141	-57.7269	52.0603	-1.28679	-43.4266	79.9744	16.128	18.7348	64.131	31.0279	30.2473	95.7853	-8.36604	31.2157	90.1169	
211	1.75833	-34.4562	-0.0388669	113.526	-53.8278	-26.6169	97.7252	-62.1467	-49.0457	68.1892	-55.6335	-64.1092	44.6649	-50.9955	7.61737	29.4438	-60.941	-0.907639	7.17491	-71.7244	-15.2952	-18.4302	-27.9725	-9.66397	18.8619	-34.5524	-45.2458	12.6959	-33.0979	-68.6352	44.5578	-8.83916	-30.0417	23.8618	-12.023	-60.8084	34.8502	-12.5999	-60.6089	70.8001	14.4234	-36.2326	33.4822	0.993825	-58.0409	49.8899	-1.17608	-43.0597	82.4751	14.5705	18.1001	61.6667	32.1872	25.6335	94.8165	-8.40411	30.1584	87.5011	
212	1.76667	-35.3154	-0.52833	111.802	-49.9625	-26.3079	96.2508	-62.9828	-49.9954	68.6718	-55.129	-64.6557	43.7811	-51.8496	9.6069	30.9586	-62.3495	1.51096	10.2099	-74.7878	-8.33994	-17.1654	-28.2572	-13.234	16.1188	-37.5097	-45.549	13.9803	-32.5213	-67.6068	47.2272	-5.75367	-33.5288	22.1367	-15.8646	-61.0486	35.9176	-14.8619	-60.5026	71.5181	13.0206	-39.6708	33.5735	-1.10055	-60.613	54.784	-0.439393	-42.8122	82.6708	16.6219	17.4761	62.5094	28.3947	24.2902	93.0448	-9.44706	28.979	89.0859	
213	1.775	-31.9345	-0.903391	112.555	-52.4829	-28.0497	92.4417	-60.0274	-51.3323	66.2798	-51.7566	-64.5911	41.2524	-50.3849	9.32324	34.0185	-63.4425	0.917794	9.91117	-76.5756	-10.3353	-17.1654	-27.0042	-10.7124	18.6505	-36.1972	-47.9992	13.669	-29.5049	-66.568	52.2729	-10.1144	-31.6919	22.7359	-15.0121	-59.9357	33.958	-17.0179	-58.1744	73.0501	12.568	-37.4257	33.3088	0.791385	-61.4278	54.4062	-2.48433	-44.3415	79.8099	19.6539	17.1182	63.9975	33.2483	24.2659	95.0534	-7.46875	29.5336	92.4534	
214	1.78333	-31.1202	-1.50829	114.332	-47.0742	-27.7885	95.934	-59.1871	-52.2962	66.6121	-53.0981	-67.404	45.4981	-49.1028	5.82241	31.489	-59.2866	-6.35484	8.14496	-72.381	-23.8038	-13.7944	-27.2829	-12.1737	18.2144	-31.7614	-47.3755	12.1257	-32.437	-66.8819	49.5336	-8.46021	-32.3221	22.4778	-14.591	-62.3997	35.2616	-13.6542	-60.7399	70.4414	15.5202	-39.9726	32.4591	-0.44776	-61.5512	54.2222	-0.590716	-44.9354	80.7335	21.6154	14.4179	59.5249	36.2737	24.0022	90.8936	-3.21389	26.8526	90.4994	
215	1.79167	-28.5339	-2.82159	112.02	-46.3718	-29.4219	92.3454	-55.2987	-51.9716	68.7587	-51.7525	-68.2564	45.3229	-43.4822	-2.33091	28.0735	-55.6307	-19.2502	7.0487	-62.9618	-43.367	-7.94898	-25.215	-15.4658	16.5126	-30.0804	-49.468	11.1981	-27.2798	-70.2195	48.624	-0.964233	-35.4221	22.7322	-12.9026	-64.0212	36.3247	-12.7761	-61.4501	68.8405	16.6394	-41.3847	32.2594	5.75601	-65.9018	52.0136	2.12654	-52.0825	80.421	22.9247	13.1082	62.9032	36.1652	22.3469	92.8512	-5.10574	27.3398	88.6014	
216	1.8	-27.1749	-3.36768	112.254	-41.7888	-30.327	93.6941	-50.0981	-53.6874	66.3576	-48.4435	-69.6323	44.099	-40.2634	-7.97887	29.5584	-48.2309	-29.8056	10.7801	-52.5791	-57.2614	-2.28873	-19.0586	-14.8736	18.4589	-25.2533	-54.57	12.1998	-28.745	-72.8634	44.7078	-0.132518	-37.4219	21.8418	-6.13281	-65.2298	33.2366	-8.65449	-60.7821	71.6058	21.5778	-43.0068	33.3709	6.09518	-65.1626	53	8.48155	-50.3584	82.8969	24.3337	11.9781	59.9339	40.4264	21.1805	89.0745	1.96077	24.0104	89.7035	
217	1.80833	-21.8542	-4.45843	112.226	-41.4194	-30.9717	94.6983	-50.26	-54.92	65.2903	-43.4959	-69.8841	46.8883	-37.7814	-8.84373	28.6724	-45.9087	-32.0666	9.88477	-48.7715	-60.1742	-2.84084	-13.6218	-19.8282	14.6011	-20.3332	-55.1695	10.0798	-21.698	-76.7077	45.4969	4.75827	-39.2848	21.6461	-0.45057	-68.2454	34.7901	-5.38493	-64.0772	70.3922	26.9314	-44.5081	33.0716	12.7772	-67.8502	51.755	7.54592	-52.9664	79.6073	30.8541	8.31452	62.1984	43.4692	19.9413	88.4603	3.9801	22.587	87.2832	
218	1.81667	-17.5395	-4.74603	110.347	-36.4744	-32.1221	90.5092	-46.1783	-55.5208	62.4923	-41.9906	-70.8523	42.3348	-31.9504	-6.92983	26.7517	-40.5238	-27.8479	5.07836	-42.1147	-53.9603	-12.4324	-11.2523	-18.2826	14.4683	-15.8083	-56.8528	9.05259	-17.0047	-77.8133	44.2521	9.36907	-40.6828	21.1906	5.03754	-68.6371	31.3231	0.56775	-66.1306	68.6307	29.4484	-42.29	31.5186	18.9867	-69.4102	48.7833	11.3105	-48.6157	77.9046	34.7484	11.3216	61.9078	45.4464	21.2625	91.0451	9.36824	22.6046	84.8433	
219	1.825	-11.991	-7.09677	108.662	-33.5736	-33.9083	88.862	-40.4773	-55.4991	58.8176	-34.5633	-70.9089	38.3444	-22.1622	-3.35875	24.8157	-31.0505	-19.5711	-2.19122	-36.0112	-37.1793	-21.6172	-4.15084	-19.4715	11.1008	-9.88953	-54.8249	7.539	-12.1893	-75.2194	41.9501	17.5836	-41.3749	19.811	7.86128	-67.7811	32.3174	3.41904	-65.517	69.088	33.9991	-44.8148	28.9809	20.9751	-66.4406	46.2211	16.7583	-49.2258	74.4345	39.5664	8.93322	59.7341	48.9969	18.9027	90.628	11.7268	21.3099	87.9591	
220	1.83333	-10.9061	-6.62156	106.571	-26.0322	-33.5836	82.7698	-34.5409	-56.7388	56.3525	-25.9219	-69.7872	31.496	-20.5095	1.87987	20.4976	-27.6265	-8.98804	-6.77829	-32.9823	-21.1102	-30.5598	4.04169	-19.7763	8.59892	-6.38329	-56.8106	8.06538	-3.20075	-72.4353	42.853	22.7859	-36.3554	19.5912	15.3293	-68.2127	31.7601	8.79585	-64.2925	67.4126	40.2601	-43.6976	29.0496	26.5768	-67.2032	50.3276	19.6269	-46.3037	72.1955	46.3003	8.58628	57.6856	54.4372	17.8033	92.5611	15.319	20.4327	80.8963	
221	1.84167	-5.31213	-7.31861	102.351	-22.55	-34.2773	82.6174	-26.422	-54.5089	54.9676	-18.0891	-68.2196	28.2337	-9.73856	5.35439	17.8241	-15.4408	-1.5396	-6.10607	-23.9328	-9.21921	-33.0003	12.1601	-16.8017	9.17897	-0.304953	-54.5623	6.49573	1.59624	-69.7673	41.4424	31.3929	-35.4058	18.8149	21.806	-67.1801	31.3287	13.6022	-62.9218	64.3822	52.7084	-43.4065	28.0218	32.9635	-63.4224	44.7255	30.1767	-46.351	72.1466	51.8649	12.2195	59.038	58.8198	19.1261	92.4153	22.749	23.4654	82.6261	
